# Blender3D v249 OBJ File: fmeBigDoor.blend
# www.blender3d.org
mtllib fmeBigDoor.mtl
v 17.999996 23.300001 1.800000
v 17.999994 23.100000 1.800000
v 0.000005 23.100000 1.800000
v 0.000007 23.300001 1.800000
v 17.999998 23.300001 2.000000
v 17.999990 23.100000 2.000000
v -0.000002 23.100000 2.000000
v 0.000009 23.300001 2.000000
vn 0.000000 0.000000 -1.000000
vn 0.000000 -0.000000 1.000000
vn 1.000000 -0.000024 0.000005
vn 0.000000 -1.000000 0.000000
vn -1.000000 0.000031 -0.000012
vn -0.000000 1.000000 0.000000
usemtl (null)
s off
f 1//1 2//1 3//1 4//1
f 5//2 8//2 7//2 6//2
f 1//3 5//3 6//3 2//3
f 2//4 6//4 7//4 3//4
f 3//5 7//5 8//5 4//5
f 5//6 1//6 4//6 8//6
v 17.999996 23.100000 1.600000
v 17.999994 22.900000 1.600000
v 0.000005 22.900000 1.600000
v 0.000007 23.100000 1.600000
v 17.999998 23.100000 1.800000
v 17.999990 22.900000 1.800000
v -0.000002 22.900000 1.800000
v 0.000009 23.100000 1.800000
usemtl (null)
s off
f 9//1 10//1 11//1 12//1
f 13//2 16//2 15//2 14//2
f 9//3 13//3 14//3 10//3
f 10//4 14//4 15//4 11//4
f 11//5 15//5 16//5 12//5
f 13//6 9//6 12//6 16//6
v 17.999996 22.900000 1.400000
v 17.999994 22.699999 1.400000
v 0.000005 22.699999 1.400000
v 0.000007 22.900000 1.400000
v 17.999998 22.900000 1.600000
v 17.999990 22.699999 1.600000
v -0.000002 22.699999 1.600000
v 0.000009 22.900000 1.600000
usemtl (null)
s off
f 17//1 18//1 19//1 20//1
f 21//2 24//2 23//2 22//2
f 17//3 21//3 22//3 18//3
f 18//4 22//4 23//4 19//4
f 19//5 23//5 24//5 20//5
f 21//6 17//6 20//6 24//6
v 17.999996 22.700001 1.200000
v 17.999994 22.500000 1.200000
v 0.000005 22.500000 1.200000
v 0.000007 22.700001 1.200000
v 17.999998 22.700001 1.400000
v 17.999990 22.500000 1.400000
v -0.000002 22.500000 1.400000
v 0.000009 22.700001 1.400000
usemtl (null)
s off
f 25//1 26//1 27//1 28//1
f 29//2 32//2 31//2 30//2
f 25//3 29//3 30//3 26//3
f 26//4 30//4 31//4 27//4
f 27//5 31//5 32//5 28//5
f 29//6 25//6 28//6 32//6
v 17.999996 22.500000 1.000000
v 17.999994 22.299999 1.000000
v 0.000005 22.299999 1.000000
v 0.000007 22.500000 1.000000
v 17.999998 22.500000 1.200000
v 17.999990 22.299999 1.200000
v -0.000002 22.299999 1.200000
v 0.000009 22.500000 1.200000
usemtl (null)
s off
f 33//1 34//1 35//1 36//1
f 37//2 40//2 39//2 38//2
f 33//3 37//3 38//3 34//3
f 34//4 38//4 39//4 35//4
f 35//5 39//5 40//5 36//5
f 37//6 33//6 36//6 40//6
v 17.999996 22.300001 0.800000
v 17.999994 22.100000 0.800000
v 0.000005 22.100000 0.800000
v 0.000007 22.300001 0.800000
v 17.999998 22.300001 1.000000
v 17.999990 22.100000 1.000000
v -0.000002 22.100000 1.000000
v 0.000009 22.300001 1.000000
usemtl (null)
s off
f 41//1 42//1 43//1 44//1
f 45//2 48//2 47//2 46//2
f 41//3 45//3 46//3 42//3
f 42//4 46//4 47//4 43//4
f 43//5 47//5 48//5 44//5
f 45//6 41//6 44//6 48//6
v 17.999996 22.100000 0.600000
v 17.999994 21.900000 0.600000
v 0.000005 21.900000 0.600000
v 0.000007 22.100000 0.600000
v 17.999998 22.100000 0.800000
v 17.999990 21.900000 0.800000
v -0.000002 21.900000 0.800000
v 0.000009 22.100000 0.800000
usemtl (null)
s off
f 49//1 50//1 51//1 52//1
f 53//2 56//2 55//2 54//2
f 49//3 53//3 54//3 50//3
f 50//4 54//4 55//4 51//4
f 51//5 55//5 56//5 52//5
f 53//6 49//6 52//6 56//6
v 17.999996 21.900000 0.400000
v 17.999994 21.699999 0.400000
v 0.000005 21.699999 0.400000
v 0.000007 21.900000 0.400000
v 17.999998 21.900000 0.600000
v 17.999990 21.699999 0.600000
v -0.000002 21.699999 0.600000
v 0.000009 21.900000 0.600000
usemtl (null)
s off
f 57//1 58//1 59//1 60//1
f 61//2 64//2 63//2 62//2
f 57//3 61//3 62//3 58//3
f 58//4 62//4 63//4 59//4
f 59//5 63//5 64//5 60//5
f 61//6 57//6 60//6 64//6
v 17.999996 21.700001 0.200000
v 17.999994 21.500000 0.200000
v 0.000005 21.500000 0.200000
v 0.000007 21.700001 0.200000
v 17.999998 21.700001 0.400000
v 17.999990 21.500000 0.400000
v -0.000002 21.500000 0.400000
v 0.000009 21.700001 0.400000
usemtl (null)
s off
f 65//1 66//1 67//1 68//1
f 69//2 72//2 71//2 70//2
f 65//3 69//3 70//3 66//3
f 66//4 70//4 71//4 67//4
f 67//5 71//5 72//5 68//5
f 69//6 65//6 68//6 72//6
v 17.999996 21.500000 0.000000
v 17.999994 21.299999 0.000000
v 0.000005 21.299999 0.000000
v 0.000007 21.500000 0.000000
v 17.999998 21.500000 0.200000
v 17.999990 21.299999 0.200000
v -0.000002 21.299999 0.200000
v 0.000009 21.500000 0.200000
usemtl (null)
s off
f 73//1 74//1 75//1 76//1
f 77//2 80//2 79//2 78//2
f 73//3 77//3 78//3 74//3
f 74//4 78//4 79//4 75//4
f 75//5 79//5 80//5 76//5
f 77//6 73//6 76//6 80//6
v 17.740000 3.800000 3.000000
v 17.740000 3.800000 0.000000
v 13.740000 3.800000 0.000000
v 13.740000 3.800000 3.000000
usemtl (null)
s off
f 81//4 84//4 83//4 82//4
v 13.740000 4.645000 0.000000
v 13.740000 3.795000 0.000000
v 13.740000 3.795000 3.000000
v 13.740000 4.645000 3.000000
vn 1.000000 -0.000000 0.000000
usemtl (null)
s off
f 85//7 88//7 87//7 86//7
v 14.340000 4.650000 3.000000
v 14.340000 4.650000 0.000000
v 13.740000 4.650000 0.000000
v 13.740000 4.650000 3.000000
usemtl (null)
s off
f 89//4 92//4 91//4 90//4
v 14.340000 13.849999 0.000000
v 14.340000 4.650001 0.000000
v 14.340000 4.650001 3.000000
v 14.340000 13.850000 3.000000
usemtl (null)
s off
f 93//7 96//7 95//7 94//7
v 14.575000 13.850000 3.000000
v 14.575000 13.850000 0.000000
v 14.345000 13.850000 0.000000
v 14.345000 13.850000 3.000000
usemtl (null)
s off
f 97//4 100//4 99//4 98//4
v 14.570000 16.674999 0.000000
v 14.570000 13.845000 0.000000
v 14.570000 13.845000 3.000000
v 14.570000 16.675001 3.000000
usemtl (null)
s off
f 101//7 104//7 103//7 102//7
v 14.565000 16.680000 3.000000
v 14.565000 16.680000 0.000000
v 13.995000 16.680000 0.000000
v 13.995000 16.680000 3.000000
usemtl (null)
s off
f 105//4 108//4 107//4 106//4
v 14.000000 17.400002 0.000000
v 14.000000 16.680000 0.000000
v 14.000000 16.680000 3.000000
v 14.000000 17.400002 3.000000
usemtl (null)
s off
f 109//7 112//7 111//7 110//7
v 18.000000 17.400000 3.000000
v 18.000000 17.400000 0.000000
v 14.000000 17.400000 0.000000
v 14.000000 17.400000 3.000000
usemtl (null)
s off
f 113//4 116//4 115//4 114//4
v 3.740000 17.400000 3.000000
v 3.740000 17.400000 0.000000
v 0.000000 17.400000 0.000000
v 0.000000 17.400000 3.000000
usemtl (null)
s off
f 117//4 120//4 119//4 118//4
v 3.740000 17.400002 0.000000
v 3.740000 16.680000 0.000000
v 3.740000 16.680000 3.000000
v 3.740000 17.400002 3.000000
usemtl (null)
s off
f 121//7 124//7 123//7 122//7
v 3.745000 16.680000 3.000000
v 3.745000 16.680000 0.000000
v 3.175000 16.680000 0.000000
v 3.175000 16.680000 3.000000
usemtl (null)
s off
f 125//4 128//4 127//4 126//4
v 3.170000 16.674999 0.000000
v 3.170000 13.845000 0.000000
v 3.170000 13.845000 3.000000
v 3.170000 16.675001 3.000000
usemtl (null)
s off
f 129//7 132//7 131//7 130//7
v 3.405000 13.850000 3.000000
v 3.405000 13.850000 0.000000
v 3.175000 13.850000 0.000000
v 3.175000 13.850000 3.000000
usemtl (null)
s off
f 133//4 136//4 135//4 134//4
v 3.400000 13.849999 0.000000
v 3.400000 4.650001 0.000000
v 3.400000 4.650001 3.000000
v 3.400000 13.850000 3.000000
usemtl (null)
s off
f 137//7 140//7 139//7 138//7
v 4.000000 4.650000 3.000000
v 4.000000 4.650000 0.000000
v 3.400000 4.650000 0.000000
v 3.400000 4.650000 3.000000
usemtl (null)
s off
f 141//4 144//4 143//4 142//4
v 4.000000 4.645000 0.000000
v 4.000000 3.795000 0.000000
v 4.000000 3.795000 3.000000
v 4.000000 4.645000 3.000000
usemtl (null)
s off
f 145//7 148//7 147//7 146//7
v 4.000000 3.800000 3.000000
v 4.000000 3.800000 0.000000
v 0.000000 3.800000 0.000000
v 0.000000 3.800000 3.000000
usemtl (null)
s off
f 149//4 152//4 151//4 150//4
v 14.000000 4.650000 3.000000
v 14.000000 4.650000 0.000000
v 4.000000 4.650000 0.000000
v 4.000001 4.650000 3.000000
usemtl (null)
s off
f 153//4 156//4 155//4 154//4
v 23.000000 22.999998 0.000000
v 23.000000 -0.999999 0.000000
v -1.000000 -0.999998 0.000000
v -0.999997 23.000002 0.000000
usemtl (null)
s off
f 157//2 160//2 159//2 158//2
